<?xml version="1.0" encoding="UTF-8"?>
<!DOCTYPE svg PUBLIC "-//W3C//DTD SVG 1.1//EN" "http://www.w3.org/Graphics/SVG/1.1/DTD/svg11.dtd">
<!-- Creator: CorelDRAW X8 -->
<svg xmlns="http://www.w3.org/2000/svg" xml:space="preserve" width="50.8mm" height="50.8mm" version="1.1" style="shape-rendering:geometricPrecision; text-rendering:geometricPrecision; image-rendering:optimizeQuality; fill-rule:evenodd; clip-rule:evenodd"
viewBox="0 0 5080 5080"
 xmlns:xlink="http://www.w3.org/1999/xlink">
 <defs>
  <style type="text/css">
   <![CDATA[
    .str0 {stroke:#2B2A29;stroke-width:67.73}
    .str1 {stroke:#2B2A29;stroke-width:42.33}
    .fil0 {fill:none}
    .fil2 {fill:#2B2A29}
    .fil1 {fill:url(#id0)}
   ]]>
  </style>
  <linearGradient id="id0" gradientUnits="userSpaceOnUse" x1="2070.1" y1="2654.3" x2="2959.1" y2="3788.83">
   <stop offset="0" style="stop-opacity:1; stop-color:#009846"/>
   <stop offset="1" style="stop-opacity:1; stop-color:#FEFEFE"/>
  </linearGradient>
 </defs>
 <g id="Ebene_x0020_1">
  <metadata id="CorelCorpID_0Corel-Layer"/>
  <path class="fil0 str0" d="M836 2256c-384,483 -480,845 -185,1397 237,446 662,720 1119,902 57,23 408,137 412,139"/>
  <path class="fil0 str0" d="M4369 2470c221,307 307,1424 -42,1686 -294,221 -524,295 -849,449 -14,6 -57,24 -74,24"/>
  <path class="fil0 str0" d="M813 1361c271,59 3511,258 3585,193"/>
  <path class="fil0 str1" d="M1765 309c-4,57 -41,699 -29,781"/>
  <path class="fil0 str1" d="M3526 385c-3,61 -141,754 -129,778"/>
  <path class="fil1 str1" d="M2642 2528c-473,-155 -1091,302 -871,775 200,427 914,633 1242,368 265,-214 341,-587 78,-906 -50,-62 -375,-240 -449,-237z"/>
  <path class="fil0 str1" d="M1969 2366c-96,-175 -218,-302 -354,-412"/>
  <path class="fil0 str1" d="M3244 2336c50,-51 489,-345 515,-345"/>
  <path class="fil0 str1" d="M1742 3645c-68,37 -411,300 -468,364"/>
  <path class="fil0 str1" d="M3296 3683c23,161 450,426 458,464"/>
  <g id="_1485197349072">
   <path class="fil2" d="M2411 3055c216,-250 580,366 -77,243 -299,-56 -72,-775 420,-350 306,265 -44,688 -494,459l5 2c0,0 -24,-11 -24,-11 -21,-10 -30,-36 -20,-57 10,-21 35,-30 56,-20l12 6c366,174 592,-85 456,-266 -323,-430 -579,93 -408,151 446,151 258,-242 142,-107 -14,19 -40,23 -59,9 -19,-14 -23,-40 -9,-59z"/>
  </g>
  <path class="fil0" d="M2445 3080c132,-179 477,275 -104,176 -192,-32 -93,-505 213,-377 587,245 106,731 -271,492l-24 -12"/>
 </g>
</svg>
